<?xml version="1.0" encoding="utf-8"?>
<!-- Generator: Adobe Illustrator 23.0.3, SVG Export Plug-In . SVG Version: 6.00 Build 0)  -->
<svg version="1.1" id="Logo" xmlns="http://www.w3.org/2000/svg" xmlns:xlink="http://www.w3.org/1999/xlink" x="0px" y="0px"
	 viewBox="0 0 156.56 94.61" style="enable-background:new 0 0 156.56 94.61;" xml:space="preserve">
<style type="text/css">
	.st0{fill:#884F97;}
</style>
<rect x="3.31" y="87.45" class="st0" width="150" height="3.49"/>
<path class="st0" d="M32.4,3.45H3.38v50.51h16.95V42.94h23.51V14.89L32.4,3.45z M40.88,39.45H16.91v10.99H6.38V6.92h24.99l9.51,9.51
	V39.45z"/>
<path class="st0" d="M73.87,2.94l-25,38.55v1.45l10.51,10.51h29l10.51-10.51v-1.49L73.87,2.94z M94.88,41.93l-8.5,8.5H61.36
	l-8.46-8.48v-0.51L73.88,9.43l21,32.01V41.93z"/>
<path class="st0" d="M139.4,28.45l12.98-12.98v-1.01l-10.5-10.5h-0.99l-12.98,12.98L114.9,3.92h-1.52l-10.5,10.5v1.03l13,13l-13,13
	v1.5l10.49,10.49h1.51l13.02-13.02l13.01,13.01h0.98l10.51-10.51v-1.49L139.4,28.45z M147.89,42.43l-6.5,6.5l-13.5-13.5l-13.5,13.5
	h-0.5l-6.5-6.5v-0.51l13.25-13.24l-13.25-13.25v-0.51l6.5-6.5h0.51l13.49,13.49l13.5-13.5l6.52,6.52l-13.51,13.51l13.5,13.5V42.43z"
	/>
<g>
	<path class="st0" d="M18.27,75.19V63.57h2.66v11.62c0,0.77-0.27,1.43-0.82,1.97c-0.55,0.54-1.2,0.81-1.96,0.81H9.31
		c-0.77,0-1.43-0.27-1.97-0.81c-0.54-0.54-0.81-1.2-0.81-1.97V63.57h2.64v11.62c0,0.09,0.05,0.14,0.14,0.14h8.84
		C18.23,75.33,18.27,75.28,18.27,75.19z"/>
	<path class="st0" d="M34.87,74.13V63.57h2.66v14.4h-2.88l-8.88-10.56v10.56h-2.64v-14.4h2.88L34.87,74.13z"/>
	<path class="st0" d="M39.77,63.59h11.6c0.77,0,1.43,0.27,1.98,0.82c0.55,0.55,0.82,1.2,0.82,1.96v3.88c0,0.76-0.27,1.41-0.82,1.96
		c-0.55,0.55-1.21,0.82-1.98,0.82l-8.9,0.02l-0.06-0.02v4.94h-2.64V63.59z M51.51,70.25v-3.88c0-0.09-0.05-0.14-0.14-0.14h-8.82
		c-0.09,0-0.14,0.05-0.14,0.14v3.88c0,0.09,0.05,0.14,0.14,0.14h8.82C51.46,70.39,51.51,70.34,51.51,70.25z"/>
	<path class="st0" d="M55.61,77.97V63.55h2.64v11.78h11.76v2.64H55.61z"/>
	<path class="st0" d="M82.87,75.19V63.57h2.66v11.62c0,0.77-0.27,1.43-0.82,1.97c-0.55,0.54-1.2,0.81-1.96,0.81h-8.84
		c-0.77,0-1.43-0.27-1.97-0.81s-0.81-1.2-0.81-1.97V63.57h2.64v11.62c0,0.09,0.05,0.14,0.14,0.14h8.84
		C82.83,75.33,82.87,75.28,82.87,75.19z"/>
	<path class="st0" d="M102.13,66.35v1.12h-2.66v-1.12c0-0.09-0.05-0.14-0.14-0.14h-8.82c-0.09,0-0.14,0.05-0.14,0.14v8.84
		c0,0.09,0.05,0.14,0.14,0.14h8.82c0.09,0,0.14-0.05,0.14-0.14v-2.72h-3.26v-2.64h5.92v5.36c0,0.77-0.27,1.43-0.82,1.97
		c-0.55,0.54-1.21,0.81-1.98,0.81h-8.82c-0.77,0-1.43-0.27-1.97-0.81s-0.81-1.2-0.81-1.97v-8.84c0-0.77,0.27-1.43,0.81-1.97
		s1.2-0.81,1.97-0.81h8.82c0.77,0,1.43,0.27,1.98,0.81C101.85,64.92,102.13,65.57,102.13,66.35z"/>
	<path class="st0" d="M118.73,66.35v1.12h-2.66v-1.12c0-0.09-0.05-0.14-0.14-0.14h-8.82c-0.09,0-0.14,0.05-0.14,0.14v8.84
		c0,0.09,0.05,0.14,0.14,0.14h8.82c0.09,0,0.14-0.05,0.14-0.14v-2.72h-3.26v-2.64h5.92v5.36c0,0.77-0.27,1.43-0.82,1.97
		c-0.55,0.54-1.21,0.81-1.98,0.81h-8.82c-0.77,0-1.43-0.27-1.97-0.81s-0.81-1.2-0.81-1.97v-8.84c0-0.77,0.27-1.43,0.81-1.97
		s1.2-0.81,1.97-0.81h8.82c0.77,0,1.43,0.27,1.98,0.81C118.45,64.92,118.73,65.57,118.73,66.35z"/>
	<path class="st0" d="M134.21,63.57v2.64h-10.58v3.24h8.52v2.64h-8.52v3.24h10.58v2.64h-13.24v-14.4H134.21z"/>
	<path class="st0" d="M136.29,63.57h11.6c0.77,0,1.43,0.27,1.98,0.81s0.82,1.2,0.82,1.97v8.84c0,0.77-0.27,1.43-0.82,1.97
		s-1.21,0.81-1.98,0.81h-11.6V63.57z M148.03,75.19v-8.84c0-0.09-0.05-0.14-0.14-0.14h-8.82c-0.09,0-0.14,0.05-0.14,0.14v8.84
		c0,0.09,0.05,0.14,0.14,0.14h8.82C147.98,75.33,148.03,75.28,148.03,75.19z"/>
</g>
</svg>
